<mxfile host="app.diagrams.net" modified="2020-11-13T03:10:25.813Z" agent="5.0 (Windows)" etag="_GbGYVVbohVkkJ7C_mZF" version="13.9.3" type="github">
  <diagram id="BXJrryn-ujAleY_WOaAF" name="Page-1">
    <mxGraphModel dx="785" dy="470" grid="1" gridSize="10" guides="1" tooltips="1" connect="1" arrows="1" fold="1" page="1" pageScale="1" pageWidth="827" pageHeight="1169" math="0" shadow="0">
      <root>
        <mxCell id="0" />
        <mxCell id="1" parent="0" />
        <mxCell id="zwG1xk1cktmhXNHY9SpD-2" value="列表项" style="rounded=0;whiteSpace=wrap;html=1;" vertex="1" parent="1">
          <mxGeometry x="260" y="140" width="120" height="30" as="geometry" />
        </mxCell>
        <mxCell id="zwG1xk1cktmhXNHY9SpD-3" value="题目列表" style="rounded=0;whiteSpace=wrap;html=1;" vertex="1" parent="1">
          <mxGeometry x="260" y="110" width="120" height="30" as="geometry" />
        </mxCell>
        <mxCell id="zwG1xk1cktmhXNHY9SpD-4" value="列表项" style="rounded=0;whiteSpace=wrap;html=1;" vertex="1" parent="1">
          <mxGeometry x="260" y="170" width="120" height="30" as="geometry" />
        </mxCell>
        <mxCell id="zwG1xk1cktmhXNHY9SpD-5" value="科目及年级" style="rounded=0;whiteSpace=wrap;html=1;" vertex="1" parent="1">
          <mxGeometry x="460" y="130" width="120" height="30" as="geometry" />
        </mxCell>
        <mxCell id="zwG1xk1cktmhXNHY9SpD-6" value="......." style="rounded=0;whiteSpace=wrap;html=1;" vertex="1" parent="1">
          <mxGeometry x="260" y="290" width="120" height="30" as="geometry" />
        </mxCell>
        <mxCell id="zwG1xk1cktmhXNHY9SpD-7" value="....." style="rounded=0;whiteSpace=wrap;html=1;" vertex="1" parent="1">
          <mxGeometry x="260" y="260" width="120" height="30" as="geometry" />
        </mxCell>
        <mxCell id="zwG1xk1cktmhXNHY9SpD-8" value="......." style="rounded=0;whiteSpace=wrap;html=1;" vertex="1" parent="1">
          <mxGeometry x="260" y="230" width="120" height="30" as="geometry" />
        </mxCell>
        <mxCell id="zwG1xk1cktmhXNHY9SpD-9" value="列表项" style="rounded=0;whiteSpace=wrap;html=1;" vertex="1" parent="1">
          <mxGeometry x="260" y="200" width="120" height="30" as="geometry" />
        </mxCell>
        <mxCell id="zwG1xk1cktmhXNHY9SpD-10" value="对应年级" style="rounded=0;whiteSpace=wrap;html=1;" vertex="1" parent="1">
          <mxGeometry x="460" y="160" width="120" height="30" as="geometry" />
        </mxCell>
        <mxCell id="zwG1xk1cktmhXNHY9SpD-11" value="" style="endArrow=classic;startArrow=classic;html=1;exitX=0;exitY=0.5;exitDx=0;exitDy=0;entryX=0;entryY=0.5;entryDx=0;entryDy=0;" edge="1" parent="1" source="zwG1xk1cktmhXNHY9SpD-10" target="zwG1xk1cktmhXNHY9SpD-5">
          <mxGeometry width="50" height="50" relative="1" as="geometry">
            <mxPoint x="350" y="180" as="sourcePoint" />
            <mxPoint x="400" y="130" as="targetPoint" />
            <Array as="points">
              <mxPoint x="380" y="160" />
            </Array>
          </mxGeometry>
        </mxCell>
        <mxCell id="zwG1xk1cktmhXNHY9SpD-12" value="分数" style="rounded=0;whiteSpace=wrap;html=1;" vertex="1" parent="1">
          <mxGeometry x="460" y="245" width="120" height="35" as="geometry" />
        </mxCell>
        <mxCell id="zwG1xk1cktmhXNHY9SpD-13" value="题目内容" style="rounded=0;whiteSpace=wrap;html=1;" vertex="1" parent="1">
          <mxGeometry x="460" y="220" width="120" height="30" as="geometry" />
        </mxCell>
        <mxCell id="zwG1xk1cktmhXNHY9SpD-14" value="题型" style="rounded=0;whiteSpace=wrap;html=1;" vertex="1" parent="1">
          <mxGeometry x="460" y="190" width="120" height="30" as="geometry" />
        </mxCell>
        <mxCell id="zwG1xk1cktmhXNHY9SpD-15" value="" style="endArrow=classic;startArrow=classic;html=1;entryX=0;entryY=0.5;entryDx=0;entryDy=0;exitX=0;exitY=0.5;exitDx=0;exitDy=0;" edge="1" parent="1" source="zwG1xk1cktmhXNHY9SpD-13" target="zwG1xk1cktmhXNHY9SpD-14">
          <mxGeometry width="50" height="50" relative="1" as="geometry">
            <mxPoint x="380" y="270" as="sourcePoint" />
            <mxPoint x="430" y="220" as="targetPoint" />
            <Array as="points">
              <mxPoint x="380" y="160" />
            </Array>
          </mxGeometry>
        </mxCell>
        <mxCell id="zwG1xk1cktmhXNHY9SpD-17" value="答案" style="rounded=0;whiteSpace=wrap;html=1;" vertex="1" parent="1">
          <mxGeometry x="460" y="310" width="120" height="30" as="geometry" />
        </mxCell>
        <mxCell id="zwG1xk1cktmhXNHY9SpD-18" value="难度" style="rounded=0;whiteSpace=wrap;html=1;" vertex="1" parent="1">
          <mxGeometry x="460" y="280" width="120" height="30" as="geometry" />
        </mxCell>
        <mxCell id="zwG1xk1cktmhXNHY9SpD-19" value="" style="endArrow=classic;startArrow=classic;html=1;entryX=0;entryY=0.5;entryDx=0;entryDy=0;exitX=0;exitY=0.5;exitDx=0;exitDy=0;" edge="1" parent="1" source="zwG1xk1cktmhXNHY9SpD-18" target="zwG1xk1cktmhXNHY9SpD-12">
          <mxGeometry width="50" height="50" relative="1" as="geometry">
            <mxPoint x="380" y="270" as="sourcePoint" />
            <mxPoint x="430" y="220" as="targetPoint" />
            <Array as="points">
              <mxPoint x="380" y="160" />
            </Array>
          </mxGeometry>
        </mxCell>
        <mxCell id="zwG1xk1cktmhXNHY9SpD-20" value="" style="endArrow=classic;html=1;entryX=0;entryY=0.5;entryDx=0;entryDy=0;" edge="1" parent="1" target="zwG1xk1cktmhXNHY9SpD-17">
          <mxGeometry width="50" height="50" relative="1" as="geometry">
            <mxPoint x="380" y="160" as="sourcePoint" />
            <mxPoint x="430" y="220" as="targetPoint" />
          </mxGeometry>
        </mxCell>
      </root>
    </mxGraphModel>
  </diagram>
</mxfile>
